# xmcd
#
# Track frame offsets: 
#        182
#        11477
#        21717
#        33257
#        44452
#        57620
#        68045
#        79245
#        92332
#        100135
#        118375
#        132842
#
# Disc length: 1899 seconds
#
# Revision: 5
# Processed by: cddbd v1.5.2PL0 Copyright (c) Steve Scherf et al.
# Submitted via: ExactAudioCopy v0.99pb5
#
DISCID=a207690c
DTITLE=Three Hanks (Williams) - Men With Broken Hearts
DYEAR=1996
DGENRE=Country
TTITLE0=I'll Never Get Out Of This World Alive
TTITLE1=Move It On Over
TTITLE2=Moanin' The Blues
TTITLE3=Never Again (Will I Knock On Your Door) 
TTITLE4=I'm A Long Gone Daddy
TTITLE5=Honky Tonk Blues
TTITLE6=I Won't Be Home No More 
TTITLE7='Neath A Cold Gray Tomb Of Stone 
TTITLE8=Where The Soul Of Man Never Dies
TTITLE9=Hand Me Down 
TTITLE10=Men With Broken Hearts 
TTITLE11=Lost Highway 
EXTD=ID3G: 2
EXTT0=
EXTT1=
EXTT2=
EXTT3=
EXTT4=
EXTT5=
EXTT6=
EXTT7=
EXTT8=
EXTT9=
EXTT10=
EXTT11=
PLAYORDER=
